<svg width="90" height="90" fill="none" xmlns="http://www.w3.org/2000/svg"><path fill-rule="evenodd" clip-rule="evenodd" d="M37.547.555c-6.127.944-12.741 3.594-18.157 7.274-2.45 1.665-9.251 7.913-8.948 8.219.076.076 1.531-.26 3.234-.745 1.702-.486 4.746-1.11 6.763-1.386 2.548-.35 4.28-.805 5.675-1.494l2.006-.991 2.182.563c1.56.403 3.062.511 5.265.38l3.082-.184 1.108-1.725 1.107-1.725 1.92.211c1.057.116 3.647.033 5.757-.184 3.724-.383 3.864-.429 4.791-1.562.526-.642 1.715-1.658 2.643-2.258 1.623-1.049 1.768-1.078 3.764-.749 4.355.719 4.447.212.242-1.332C52.408.087 45.318-.643 37.547.555zm14.927 2.229c.624.383 1.135.769 1.135.857 0 .088-.904.857-2.008 1.71-1.658 1.279-2.349 1.583-3.966 1.748-1.53.155-2.165.062-2.904-.426l-.947-.626 2.73-1.587c4.822-2.803 4.344-2.669 5.96-1.676zM35.103 5.4c.48 0 1.223-.123 1.65-.273.644-.226.9-.073 1.476.882.833 1.38.825 1.386-2.823 2.24l-2.665.625-1.303-.812-1.304-.812 1.35-1.16c.967-.831 1.547-1.094 2.048-.925.384.129 1.09.235 1.57.235zm19.204 4.692c0 .75.614 1.587 2.643 3.605 3.51 3.49 3.619 3.714 2.147 4.421-1.11.533-1.279.52-3.242-.264-1.895-.755-2.08-.925-2.183-1.996-.094-.991-.336-1.274-1.571-1.839-.803-.367-1.639-.67-1.857-.675-.218-.004-.584.992-.813 2.214-.23 1.223-.522 2.393-.65 2.6-.13.209-.942.519-1.806.69-1.35.265-1.587.442-1.68 1.25-.188 1.62.442 2.286 2.46 2.6 1.01.156 1.996.29 2.188.297.192.007.514-.937.716-2.098l.367-2.11 2.027.095c1.115.051 2.36.329 2.766.615.406.286 1.46.521 2.343.521h1.604l.987 2.08c.652 1.375 1.897 2.992 3.668 4.765 2.364 2.367 2.662 2.808 2.526 3.739l-.154 1.055-2.315-.22c-2.3-.22-2.338-.208-5.966 1.716-3.361 1.782-3.855 2.183-6.211 5.038-1.72 2.083-2.684 3.594-2.937 4.597-.458 1.815-1.081 1.913-3.977.623l-1.957-.871-1.673.853-1.672.854.352 1.794.352 1.794.93-.897c.6-.58 1.325-.897 2.045-.897 1.106 0 1.116.015 1.116 1.758 0 1.53.091 1.759.706 1.759.388 0 1.41.653 2.27 1.452l1.564 1.452 1.578-.445c1.824-.514 4.309-.304 8.198.695 1.44.37 3.168.77 3.84.89.946.167 1.64.714 3.064 2.417 1.44 1.72 2.683 2.695 5.69 4.463 2.878 1.693 3.808 2.412 3.696 2.855-.083.325-1.186 2.557-2.452 4.96l-2.301 4.37-2.6 1.141-2.601 1.142-.98 2.777-.98 2.778-3.883 2.604c-3.558 2.387-3.914 2.726-4.247 4.044-.199.792-.242 1.44-.095 1.44.778 0 6.137-1.976 8.598-3.17 12.33-5.981 21.276-17.488 24.33-31.294.967-4.367 1.033-13.877.126-17.905-.921-4.085-2.55-8.657-4.258-11.952-2.34-4.514-1.927-4.23-5.578-3.833-5.608.609-5.35.519-6.379 2.233-1.275 2.127-1.548 2.02-6.433-2.533-1.3-1.211-1.832-2.069-2.518-4.057-1.222-3.54-3.63-6.012-6.402-6.572-2.582-.523-2.526-.535-2.526.582zM6.82 22.076c-1.604.42-4.75 7.8-6.17 14.471-.878 4.133-.864 13.044.028 17.232 1.94 9.102 5.82 16.271 12.394 22.891 5.254 5.292 10.124 8.42 16.793 10.785 5.609 1.99 12.77 2.944 17.925 2.388l2.359-.254-.22-2.872c-.188-2.434-.08-3.427.707-6.524.51-2.008.945-3.907.964-4.22.085-1.33-2.041-7.694-3.448-10.322-.84-1.568-1.526-3.065-1.526-3.326 0-.26.631-1.739 1.403-3.285l1.404-2.812-.903-.345c-.496-.19-1.075-.346-1.285-.346-.21 0-1.26-.84-2.334-1.866-1.888-1.806-2.074-1.893-5.657-2.68l-3.705-.815-1.167-2.507-1.167-2.506-.124 1.494c-.073.883-.3 1.495-.553 1.495-.237 0-1.878-1.984-3.647-4.409l-3.216-4.408-.002-3.592-.002-3.592-2.298-3.78c-1.264-2.08-2.48-3.78-2.704-3.78-.223 0-1.742.238-3.374.527-1.632.29-4.358.527-6.057.527-2.602 0-3.254-.119-4.143-.756l-1.055-.757 1.35-1.164c1.322-1.14 1.186-1.352-.57-.892z" fill="#D7FA00"/></svg>