<svg width="98" height="66" fill="none" xmlns="http://www.w3.org/2000/svg"><path fill-rule="evenodd" clip-rule="evenodd" d="M11.321.344c-1.861 1-2.243 2.87-.92 4.506l.786.971h49.249v21.811l1.108 1.077 1.109 1.078 12.45.018 12.45.017 2.181 2.8 2.18 2.8v15.381H86.33l-1.198-2.364c-2.176-4.299-6.121-6.675-11.054-6.66-2.34.008-3.245.195-5.007 1.033-2.55 1.212-5.275 4.004-6.194 6.343l-.648 1.648H44.48l-.767-1.739c-1.233-2.797-3.117-4.726-5.93-6.072-4.819-2.307-10.295-1.417-14.016 2.277-.872.866-1.982 2.463-2.465 3.549l-.878 1.973-4.619.006c-4.534.006-4.633.024-5.404.978-.433.534-.786 1.35-.786 1.813 0 2.489 1.355 3.115 6.743 3.115h4.125l.874 1.813c1.118 2.321 3.85 4.928 6.273 5.986 2.792 1.22 6.853 1.168 9.727-.124 2.663-1.198 4.913-3.346 6.07-5.798l.886-1.877h17.93l1.012 2.01c2.19 4.353 7.46 7.241 12.17 6.67 4.314-.525 8.39-3.425 9.93-7.066l.681-1.612h4.628c4.99-.002 6.239-.313 6.898-1.72.595-1.268.58-20.9-.018-21.996-.241-.443-1.564-2.203-2.94-3.911-1.767-2.197-3.999-5.92-7.62-12.716-3.765-7.066-5.37-9.73-6.068-10.07-.65-.315-3.066-.461-7.68-.465l-6.732-.006V3.834c0-1.407-.212-2.241-.725-2.857l-.725-.87L38.567.02C19.79-.039 11.86.055 11.321.344zM7.854 12.455c-1.035.406-2.032 1.78-2.032 2.8 0 .435.354 1.228.786 1.762l.786.972H36.41l.825-.854c1.413-1.463.968-3.623-.952-4.617-.992-.513-27.134-.571-28.43-.063zm73.066 5.54l3.042 5.907-8.634-.1-8.634-.099-.105-5.807-.104-5.807h11.392l3.043 5.907zm-78.323 6.32c-1.936 1.03-2.287 3.098-.775 4.568l.93.905h28.514l.93-.905c1.516-1.473 1.133-3.541-.845-4.565-1.125-.582-27.659-.585-28.754-.003zm4.405 12.018c-.44.355-.905 1.177-1.035 1.828-.197.99-.047 1.367.918 2.305l1.153 1.12h7.943c7.46 0 8.003-.046 8.942-.764 1.335-1.02 1.395-3.17.121-4.333-.845-.772-1.181-.801-9.06-.801-7.236 0-8.275.074-8.982.645zm28.466 12.114c1.836.911 2.78 2.65 2.78 5.123 0 3.645-2.2 5.8-5.924 5.8-2.373 0-4.216-1.114-5.237-3.165-.99-1.987-.992-3.28-.009-5.254 1.534-3.08 5.092-4.143 8.39-2.505zm41.843.11c3.627 2.006 3.86 7.623.407 9.823-2.56 1.63-5.607 1.285-7.831-.887-2.394-2.338-2.319-5.772.177-8.124 2.044-1.925 4.697-2.223 7.247-.813z" fill="#D7FA00"/></svg>