<svg width="83" height="80" fill="none" xmlns="http://www.w3.org/2000/svg"><path fill-rule="evenodd" clip-rule="evenodd" d="M39.098 2.344v2.344h5.143V0h-5.143v2.344zM18.273 4.15l-1.677 1.652 1.698 1.63 1.7 1.631 1.677-1.65 1.677-1.652L21.65 4.13l-1.7-1.63-1.677 1.65zm43.396 0l-1.677 1.652 1.698 1.63 1.699 1.631 1.677-1.65 1.678-1.652-1.699-1.631-1.699-1.63-1.677 1.65zM24.794 14.994l-3.215 5.618-10.527.006-10.528.007v39.433l9.724 9.648 9.724 9.648 31.422.01 31.421.011v-58.75l-10.527-.007-10.528-.006-3.214-5.618-3.215-5.618H28.008l-3.214 5.618zm20.097 1.803c-1.658 1.504-3.108 2.734-3.221 2.734-.114 0-1.563-1.23-3.221-2.734l-3.014-2.735h12.47l-3.014 2.735zm-11.936 1.406l2.6 2.422h-4.202c-2.31 0-4.154-.108-4.095-.24.555-1.245 2.706-4.749 2.877-4.685.12.044 1.39 1.17 2.82 2.503zm21.746-.319c.7 1.243 1.322 2.368 1.38 2.5.06.133-1.766.241-4.055.241h-4.163l2.61-2.495c1.434-1.373 2.686-2.498 2.782-2.5.095-.003.746 1.012 1.446 2.254zm-22.95 17.738c5.367 5.498 9.83 9.997 9.919 9.997.088 0 4.552-4.499 9.919-9.997l9.758-9.997h16.647v49.063H23.669V56.874H5.347v-31.25h16.646l9.758 9.997zm7.347-4.666v5.332l-3.468-3.535a840.865 840.865 0 01-5.19-5.331l-1.721-1.797h10.38v5.331zM52.9 27.422c-.947.988-3.282 3.387-5.19 5.331l-3.468 3.535V25.625h10.38L52.9 27.422zm11.594 18.984v2.344h4.821v-4.687h-4.821v2.343zM30.42 55.781v2.344h38.894v-4.687H30.42v2.343zM18.526 66.25c0 2.578-.038 4.688-.085 4.688-.046 0-2.25-2.11-4.898-4.688L8.73 61.562h9.797v4.688zm23.787-1.094V67.5h27.001v-4.688H42.313v2.344z" fill="#D7FA00"/></svg>